<mxfile host="app.diagrams.net" agent="Mozilla/5.0 (Windows NT 10.0; Win64; x64) AppleWebKit/537.36 (KHTML, like Gecko) Chrome/131.0.0.0 Safari/537.36 Edg/131.0.0.0" version="24.7.7">
  <diagram name="Page-1" id="u7-TTBfdsnvZqhp0CsQu">
    <mxGraphModel dx="1550" dy="948" grid="1" gridSize="10" guides="1" tooltips="1" connect="1" arrows="1" fold="1" page="1" pageScale="1" pageWidth="850" pageHeight="1100" math="0" shadow="0">
      <root>
        <mxCell id="0" />
        <mxCell id="1" parent="0" />
        <mxCell id="GJjUbqn_mIdFy_l6iSwF-5" value="" style="ellipse;whiteSpace=wrap;html=1;align=center;aspect=fixed;fillColor=none;strokeColor=none;resizable=0;perimeter=centerPerimeter;rotatable=0;allowArrows=0;points=[];outlineConnect=1;fontFamily=Helvetica;" vertex="1" parent="1">
          <mxGeometry x="220" y="460" width="10" height="10" as="geometry" />
        </mxCell>
        <mxCell id="GJjUbqn_mIdFy_l6iSwF-19" value="pipeline" style="swimlane;fontStyle=2;fontFamily=Helvetica;flipV=0;strokeColor=default;strokeWidth=2;shadow=0;glass=0;rounded=0;swimlaneFillColor=default;fontSize=26;startSize=40;" vertex="1" parent="1">
          <mxGeometry x="120" y="30" width="1050" height="730" as="geometry" />
        </mxCell>
        <mxCell id="GJjUbqn_mIdFy_l6iSwF-6" value="samplesheet" style="shape=table;startSize=20;container=1;collapsible=0;childLayout=tableLayout;strokeColor=default;fontSize=15;fontStyle=2;fontFamily=Helvetica;" vertex="1" parent="GJjUbqn_mIdFy_l6iSwF-19">
          <mxGeometry x="60" y="80" width="350" height="86" as="geometry" />
        </mxCell>
        <mxCell id="GJjUbqn_mIdFy_l6iSwF-7" value="" style="shape=tableRow;horizontal=0;startSize=0;swimlaneHead=0;swimlaneBody=0;strokeColor=inherit;top=0;left=0;bottom=0;right=0;collapsible=0;dropTarget=0;fillColor=none;points=[[0,0.5],[1,0.5]];portConstraint=eastwest;fontSize=12;fontFamily=Helvetica;" vertex="1" parent="GJjUbqn_mIdFy_l6iSwF-6">
          <mxGeometry y="20" width="350" height="20" as="geometry" />
        </mxCell>
        <mxCell id="GJjUbqn_mIdFy_l6iSwF-8" value="sample" style="shape=partialRectangle;html=1;whiteSpace=wrap;connectable=0;strokeColor=inherit;overflow=hidden;fillColor=none;top=0;left=0;bottom=0;right=0;pointerEvents=1;fontSize=12;fontStyle=1;fontFamily=Helvetica;" vertex="1" parent="GJjUbqn_mIdFy_l6iSwF-7">
          <mxGeometry width="66" height="20" as="geometry">
            <mxRectangle width="66" height="20" as="alternateBounds" />
          </mxGeometry>
        </mxCell>
        <mxCell id="GJjUbqn_mIdFy_l6iSwF-9" value="fastq_1" style="shape=partialRectangle;html=1;whiteSpace=wrap;connectable=0;strokeColor=inherit;overflow=hidden;fillColor=none;top=0;left=0;bottom=0;right=0;pointerEvents=1;fontSize=12;fontStyle=1;fontFamily=Helvetica;" vertex="1" parent="GJjUbqn_mIdFy_l6iSwF-7">
          <mxGeometry x="66" width="147" height="20" as="geometry">
            <mxRectangle width="147" height="20" as="alternateBounds" />
          </mxGeometry>
        </mxCell>
        <mxCell id="GJjUbqn_mIdFy_l6iSwF-10" value="fastq_2" style="shape=partialRectangle;html=1;whiteSpace=wrap;connectable=0;strokeColor=inherit;overflow=hidden;fillColor=none;top=0;left=0;bottom=0;right=0;pointerEvents=1;fontSize=12;fontStyle=1;fontFamily=Helvetica;" vertex="1" parent="GJjUbqn_mIdFy_l6iSwF-7">
          <mxGeometry x="213" width="137" height="20" as="geometry">
            <mxRectangle width="137" height="20" as="alternateBounds" />
          </mxGeometry>
        </mxCell>
        <mxCell id="GJjUbqn_mIdFy_l6iSwF-11" value="" style="shape=tableRow;horizontal=0;startSize=0;swimlaneHead=0;swimlaneBody=0;strokeColor=inherit;top=0;left=0;bottom=0;right=0;collapsible=0;dropTarget=0;fillColor=none;points=[[0,0.5],[1,0.5]];portConstraint=eastwest;fontSize=12;fontFamily=Helvetica;" vertex="1" parent="GJjUbqn_mIdFy_l6iSwF-6">
          <mxGeometry y="40" width="350" height="22" as="geometry" />
        </mxCell>
        <mxCell id="GJjUbqn_mIdFy_l6iSwF-12" value="sample1" style="shape=partialRectangle;html=1;whiteSpace=wrap;connectable=0;strokeColor=inherit;overflow=hidden;fillColor=none;top=0;left=0;bottom=0;right=0;pointerEvents=1;fontSize=12;fontFamily=Helvetica;" vertex="1" parent="GJjUbqn_mIdFy_l6iSwF-11">
          <mxGeometry width="66" height="22" as="geometry">
            <mxRectangle width="66" height="22" as="alternateBounds" />
          </mxGeometry>
        </mxCell>
        <mxCell id="GJjUbqn_mIdFy_l6iSwF-13" value="sample1_R1.fastq.gz" style="shape=partialRectangle;html=1;whiteSpace=wrap;connectable=0;strokeColor=inherit;overflow=hidden;fillColor=none;top=0;left=0;bottom=0;right=0;pointerEvents=1;fontSize=12;fontFamily=Helvetica;" vertex="1" parent="GJjUbqn_mIdFy_l6iSwF-11">
          <mxGeometry x="66" width="147" height="22" as="geometry">
            <mxRectangle width="147" height="22" as="alternateBounds" />
          </mxGeometry>
        </mxCell>
        <mxCell id="GJjUbqn_mIdFy_l6iSwF-14" value="sample1_R2.fastq.gz" style="shape=partialRectangle;html=1;whiteSpace=wrap;connectable=0;strokeColor=inherit;overflow=hidden;fillColor=none;top=0;left=0;bottom=0;right=0;pointerEvents=1;fontSize=12;fontFamily=Helvetica;" vertex="1" parent="GJjUbqn_mIdFy_l6iSwF-11">
          <mxGeometry x="213" width="137" height="22" as="geometry">
            <mxRectangle width="137" height="22" as="alternateBounds" />
          </mxGeometry>
        </mxCell>
        <mxCell id="GJjUbqn_mIdFy_l6iSwF-15" value="" style="shape=tableRow;horizontal=0;startSize=0;swimlaneHead=0;swimlaneBody=0;strokeColor=inherit;top=0;left=0;bottom=0;right=0;collapsible=0;dropTarget=0;fillColor=none;points=[[0,0.5],[1,0.5]];portConstraint=eastwest;fontSize=12;fontFamily=Helvetica;" vertex="1" parent="GJjUbqn_mIdFy_l6iSwF-6">
          <mxGeometry y="62" width="350" height="24" as="geometry" />
        </mxCell>
        <mxCell id="GJjUbqn_mIdFy_l6iSwF-16" value="sample2" style="shape=partialRectangle;html=1;whiteSpace=wrap;connectable=0;strokeColor=inherit;overflow=hidden;fillColor=none;top=0;left=0;bottom=0;right=0;pointerEvents=1;fontSize=12;fontFamily=Helvetica;" vertex="1" parent="GJjUbqn_mIdFy_l6iSwF-15">
          <mxGeometry width="66" height="24" as="geometry">
            <mxRectangle width="66" height="24" as="alternateBounds" />
          </mxGeometry>
        </mxCell>
        <mxCell id="GJjUbqn_mIdFy_l6iSwF-17" value="sample2_R1.fastq.gz" style="shape=partialRectangle;html=1;whiteSpace=wrap;connectable=0;strokeColor=inherit;overflow=hidden;fillColor=none;top=0;left=0;bottom=0;right=0;pointerEvents=1;fontSize=12;fontFamily=Helvetica;" vertex="1" parent="GJjUbqn_mIdFy_l6iSwF-15">
          <mxGeometry x="66" width="147" height="24" as="geometry">
            <mxRectangle width="147" height="24" as="alternateBounds" />
          </mxGeometry>
        </mxCell>
        <mxCell id="GJjUbqn_mIdFy_l6iSwF-18" value="sample2_R2.fastq.gz" style="shape=partialRectangle;html=1;whiteSpace=wrap;connectable=0;strokeColor=inherit;overflow=hidden;fillColor=none;top=0;left=0;bottom=0;right=0;pointerEvents=1;fontSize=12;fontFamily=Helvetica;" vertex="1" parent="GJjUbqn_mIdFy_l6iSwF-15">
          <mxGeometry x="213" width="137" height="24" as="geometry">
            <mxRectangle width="137" height="24" as="alternateBounds" />
          </mxGeometry>
        </mxCell>
        <mxCell id="GJjUbqn_mIdFy_l6iSwF-20" value="&lt;i&gt;email&lt;/i&gt;" style="shape=message;html=1;html=1;outlineConnect=0;labelPosition=center;verticalLabelPosition=bottom;align=center;verticalAlign=top;fontFamily=Helvetica;" vertex="1" parent="GJjUbqn_mIdFy_l6iSwF-19">
          <mxGeometry x="70" y="557" width="60" height="40" as="geometry" />
        </mxCell>
        <mxCell id="GJjUbqn_mIdFy_l6iSwF-22" value="&lt;i&gt;Input data&lt;/i&gt;" style="shape=note;whiteSpace=wrap;html=1;backgroundOutline=1;darkOpacity=0.05;fontFamily=Helvetica;" vertex="1" parent="GJjUbqn_mIdFy_l6iSwF-19">
          <mxGeometry x="460" y="70" width="80" height="100" as="geometry" />
        </mxCell>
        <mxCell id="GJjUbqn_mIdFy_l6iSwF-24" value="&lt;i&gt;module&lt;/i&gt;" style="shape=process;whiteSpace=wrap;html=1;backgroundOutline=1;" vertex="1" parent="GJjUbqn_mIdFy_l6iSwF-19">
          <mxGeometry x="560" y="90" width="120" height="60" as="geometry" />
        </mxCell>
        <mxCell id="GJjUbqn_mIdFy_l6iSwF-25" value="&lt;i style=&quot;font-weight: normal; font-size: 15px;&quot;&gt;workflow&lt;/i&gt;" style="swimlane;whiteSpace=wrap;html=1;fontSize=15;" vertex="1" parent="GJjUbqn_mIdFy_l6iSwF-19">
          <mxGeometry x="40" y="220" width="200" height="200" as="geometry" />
        </mxCell>
        <mxCell id="GJjUbqn_mIdFy_l6iSwF-26" value="&lt;i style=&quot;font-weight: normal; font-size: 15px;&quot;&gt;subworkflow&lt;/i&gt;" style="swimlane;horizontal=0;whiteSpace=wrap;html=1;fontSize=15;" vertex="1" parent="GJjUbqn_mIdFy_l6iSwF-19">
          <mxGeometry x="270" y="220" width="200" height="200" as="geometry" />
        </mxCell>
        <mxCell id="GJjUbqn_mIdFy_l6iSwF-32" value="" style="endArrow=classic;html=1;rounded=0;strokeWidth=2;" edge="1" parent="GJjUbqn_mIdFy_l6iSwF-19">
          <mxGeometry relative="1" as="geometry">
            <mxPoint x="497.5" y="219.2" as="sourcePoint" />
            <mxPoint x="780" y="219" as="targetPoint" />
          </mxGeometry>
        </mxCell>
        <mxCell id="GJjUbqn_mIdFy_l6iSwF-33" value="&lt;i&gt;channel&lt;/i&gt;" style="edgeLabel;resizable=0;html=1;;align=center;verticalAlign=middle;" connectable="0" vertex="1" parent="GJjUbqn_mIdFy_l6iSwF-32">
          <mxGeometry relative="1" as="geometry" />
        </mxCell>
        <mxCell id="GJjUbqn_mIdFy_l6iSwF-34" value="" style="endArrow=classic;html=1;rounded=0;strokeWidth=2;shape=flexArrow;" edge="1" parent="GJjUbqn_mIdFy_l6iSwF-19">
          <mxGeometry relative="1" as="geometry">
            <mxPoint x="492.25" y="250" as="sourcePoint" />
            <mxPoint x="780" y="250" as="targetPoint" />
          </mxGeometry>
        </mxCell>
        <mxCell id="GJjUbqn_mIdFy_l6iSwF-35" value="&lt;i&gt;pipeline path&lt;/i&gt;" style="edgeLabel;resizable=0;html=1;;align=center;verticalAlign=middle;" connectable="0" vertex="1" parent="GJjUbqn_mIdFy_l6iSwF-34">
          <mxGeometry relative="1" as="geometry" />
        </mxCell>
        <mxCell id="GJjUbqn_mIdFy_l6iSwF-36" value="&lt;h1 style=&quot;margin-top: 0px;&quot;&gt;Nextflow workflow elements&lt;/h1&gt;&lt;p&gt;Template made by Ethan Hetrick&lt;/p&gt;" style="text;html=1;whiteSpace=wrap;overflow=hidden;rounded=0;" vertex="1" parent="GJjUbqn_mIdFy_l6iSwF-19">
          <mxGeometry x="820" y="60" width="180" height="220" as="geometry" />
        </mxCell>
        <mxCell id="GJjUbqn_mIdFy_l6iSwF-37" value="&lt;i&gt;storage&lt;/i&gt;" style="shape=datastore;whiteSpace=wrap;html=1;" vertex="1" parent="GJjUbqn_mIdFy_l6iSwF-19">
          <mxGeometry x="520" y="410" width="80" height="90" as="geometry" />
        </mxCell>
        <mxCell id="GJjUbqn_mIdFy_l6iSwF-38" value="&lt;i&gt;Output data&lt;/i&gt;" style="shape=note;whiteSpace=wrap;html=1;backgroundOutline=1;darkOpacity=0.05;fontFamily=Helvetica;flipV=0;flipH=1;" vertex="1" parent="GJjUbqn_mIdFy_l6iSwF-19">
          <mxGeometry x="700" y="66" width="80" height="100" as="geometry" />
        </mxCell>
        <UserObject label="Link" link="https://www.draw.io" id="GJjUbqn_mIdFy_l6iSwF-40">
          <mxCell style="text;html=1;strokeColor=default;fillColor=none;whiteSpace=wrap;align=center;verticalAlign=middle;fontColor=#0000EE;fontStyle=4;glass=0;rounded=1;" vertex="1" parent="GJjUbqn_mIdFy_l6iSwF-19">
            <mxGeometry x="300" y="570" width="57.5" height="40" as="geometry" />
          </mxCell>
        </UserObject>
        <mxCell id="GJjUbqn_mIdFy_l6iSwF-3" value="- Modules&lt;div&gt;- Subworkflows&lt;/div&gt;&lt;div&gt;- Workflows&lt;/div&gt;&lt;div&gt;- Pipeline&lt;/div&gt;&lt;div&gt;- Samplesheet&lt;/div&gt;&lt;div&gt;- Input data&lt;/div&gt;&lt;div&gt;- Output files&lt;/div&gt;&lt;div&gt;- Channels&lt;/div&gt;&lt;div&gt;- Pipeline paths&lt;/div&gt;&lt;div&gt;- etc.&lt;/div&gt;" style="text;html=1;align=center;verticalAlign=middle;resizable=0;points=[];autosize=1;strokeColor=none;fillColor=none;fontFamily=Helvetica;" vertex="1" parent="GJjUbqn_mIdFy_l6iSwF-19">
          <mxGeometry x="840" y="190" width="110" height="160" as="geometry" />
        </mxCell>
        <mxCell id="GJjUbqn_mIdFy_l6iSwF-54" value="&lt;span style=&quot;font-weight: normal;&quot;&gt;&lt;i&gt;Pipeline summary&lt;/i&gt;&lt;/span&gt;" style="swimlane;childLayout=stackLayout;horizontal=1;fillColor=none;horizontalStack=1;resizeParent=1;resizeParentMax=0;resizeLast=0;collapsible=0;strokeColor=none;stackBorder=10;stackSpacing=-12;resizable=1;align=center;points=[];whiteSpace=wrap;html=1;" vertex="1" parent="GJjUbqn_mIdFy_l6iSwF-19">
          <mxGeometry x="484" y="270" width="296" height="100" as="geometry" />
        </mxCell>
        <mxCell id="GJjUbqn_mIdFy_l6iSwF-55" value="Step 1" style="shape=step;perimeter=stepPerimeter;fixedSize=1;points=[];whiteSpace=wrap;html=1;" vertex="1" parent="GJjUbqn_mIdFy_l6iSwF-54">
          <mxGeometry x="10" y="33" width="100" height="57" as="geometry" />
        </mxCell>
        <mxCell id="GJjUbqn_mIdFy_l6iSwF-56" value="Step 2" style="shape=step;perimeter=stepPerimeter;fixedSize=1;points=[];whiteSpace=wrap;html=1;" vertex="1" parent="GJjUbqn_mIdFy_l6iSwF-54">
          <mxGeometry x="98" y="33" width="100" height="57" as="geometry" />
        </mxCell>
        <mxCell id="GJjUbqn_mIdFy_l6iSwF-57" value="Step 3" style="shape=step;perimeter=stepPerimeter;fixedSize=1;points=[];whiteSpace=wrap;html=1;" vertex="1" parent="GJjUbqn_mIdFy_l6iSwF-54">
          <mxGeometry x="186" y="33" width="100" height="57" as="geometry" />
        </mxCell>
        <mxCell id="GJjUbqn_mIdFy_l6iSwF-60" value="&lt;i&gt;tower&lt;/i&gt;" style="verticalLabelPosition=bottom;sketch=0;aspect=fixed;html=1;verticalAlign=top;strokeColor=none;align=center;outlineConnect=0;shape=mxgraph.citrix.tower_server;" vertex="1" parent="GJjUbqn_mIdFy_l6iSwF-19">
          <mxGeometry x="810" y="420" width="65" height="85" as="geometry" />
        </mxCell>
        <mxCell id="GJjUbqn_mIdFy_l6iSwF-61" value="&lt;i&gt;local&lt;/i&gt;" style="image;html=1;image=img/lib/clip_art/computers/Monitor_Tower_128x128.png" vertex="1" parent="GJjUbqn_mIdFy_l6iSwF-19">
          <mxGeometry x="930" y="415" width="80" height="80" as="geometry" />
        </mxCell>
        <mxCell id="GJjUbqn_mIdFy_l6iSwF-62" value="&lt;i&gt;on-prem&lt;/i&gt;" style="shape=mxgraph.cisco.computers_and_peripherals.ibm_tower;html=1;pointerEvents=1;dashed=0;fillColor=#036897;strokeColor=#ffffff;strokeWidth=2;verticalLabelPosition=bottom;verticalAlign=top;align=center;outlineConnect=0;" vertex="1" parent="GJjUbqn_mIdFy_l6iSwF-19">
          <mxGeometry x="958" y="560" width="42" height="77" as="geometry" />
        </mxCell>
        <mxCell id="GJjUbqn_mIdFy_l6iSwF-63" value="cloud" style="image;html=1;image=img/lib/clip_art/networking/Cloud_Rack_128x128.png" vertex="1" parent="GJjUbqn_mIdFy_l6iSwF-19">
          <mxGeometry x="810" y="558.5" width="80" height="80" as="geometry" />
        </mxCell>
        <mxCell id="GJjUbqn_mIdFy_l6iSwF-65" value="&lt;i&gt;memory&lt;/i&gt;" style="sketch=0;pointerEvents=1;shadow=0;dashed=0;html=1;strokeColor=none;fillColor=#434445;aspect=fixed;labelPosition=center;verticalLabelPosition=bottom;verticalAlign=top;align=center;outlineConnect=0;shape=mxgraph.vvd.memory;" vertex="1" parent="GJjUbqn_mIdFy_l6iSwF-19">
          <mxGeometry x="510" y="530" width="105.26" height="40" as="geometry" />
        </mxCell>
        <mxCell id="GJjUbqn_mIdFy_l6iSwF-68" value="&lt;i&gt;cpu&lt;/i&gt;" style="sketch=0;pointerEvents=1;shadow=0;dashed=0;html=1;strokeColor=none;fillColor=#434445;aspect=fixed;labelPosition=center;verticalLabelPosition=bottom;verticalAlign=top;align=center;outlineConnect=0;shape=mxgraph.vvd.cpu;" vertex="1" parent="GJjUbqn_mIdFy_l6iSwF-19">
          <mxGeometry x="662.5" y="542" width="55" height="55" as="geometry" />
        </mxCell>
        <mxCell id="GJjUbqn_mIdFy_l6iSwF-69" value="&lt;i&gt;gpu&lt;/i&gt;" style="editableCssRules=.*;html=1;shape=image;verticalLabelPosition=bottom;labelBackgroundColor=#ffffff;verticalAlign=top;aspect=fixed;imageAspect=0;image=data:image/svg+xml,PHN2ZyB4bWxucz0iaHR0cDovL3d3dy53My5vcmcvMjAwMC9zdmciIHhtbG5zOnY9Imh0dHBzOi8vdmVjdGEuaW8vbmFubyIgd2lkdGg9IjIwIiBoZWlnaHQ9IjIwIiB2aWV3Qm94PSIwIDAgMjAgMjAiPiYjeGE7CTxzdHlsZSB0eXBlPSJ0ZXh0L2NzcyI+JiN4YTsJLnN0MHtmaWxsOiM0Mjg1ZjQ7fSYjeGE7CTwvc3R5bGU+JiN4YTsJPHBhdGggY2xhc3M9InN0MCIgZD0iTTEzLjMzIDB2Mi4zOGgtMi4xNlYwSDguODN2Mi4zOEg2LjY3VjBINC4yOXYyLjM4YTIgMiAwIDAgMC0xLjkxIDEuOTFIMHYyLjM4aDIuMzh2Mi4xNEgwdjIuMzhoMi4zOHYyLjE0SDB2Mi4zOGgyLjM4YTIgMiAwIDAgMCAxLjkxIDEuOTFWMjBoMi4zOHYtMi4zOGgyLjE2VjIwaDIuMzR2LTIuMzhoMi4xNlYyMGgyLjM4di0yLjM4YTIgMiAwIDAgMCAxLjkxLTEuOTFIMjB2LTIuMzhoLTIuMzh2LTIuMTRIMjBWOC44MWgtMi4zOFY2LjY3SDIwVjQuMjloLTIuMzhhMiAyIDAgMCAwLTEuOTEtMS45MVYwem0xLjUzIDE1LjI0SDUuMTRhLjM4LjM4IDAgMCAxLS4zOC0uMzhWNS4xNGEuMzguMzggMCAwIDEgLjM4LS4zOGg5LjcyYS4zOC4zOCAwIDAgMSAuMzguMzh2OS43MmEuMzguMzggMCAwIDEtLjM4LjM4em0tMi4wNy02LjEybC0zLjUgNC44NnYtMy42M0g3LjIybDMuNjEtNC44MXYzLjU4eiIvPiYjeGE7PC9zdmc+;" vertex="1" parent="GJjUbqn_mIdFy_l6iSwF-19">
          <mxGeometry x="667.5" y="630" width="50" height="50" as="geometry" />
        </mxCell>
        <mxCell id="GJjUbqn_mIdFy_l6iSwF-70" value="S3 Bucket" style="sketch=0;outlineConnect=0;fontColor=#232F3E;gradientColor=none;strokeColor=#232F3E;fillColor=#ffffff;dashed=0;verticalLabelPosition=bottom;verticalAlign=top;align=center;html=1;fontSize=12;fontStyle=0;aspect=fixed;shape=mxgraph.aws4.resourceIcon;resIcon=mxgraph.aws4.bucket;" vertex="1" parent="GJjUbqn_mIdFy_l6iSwF-19">
          <mxGeometry x="530" y="610" width="60" height="60" as="geometry" />
        </mxCell>
        <mxCell id="GJjUbqn_mIdFy_l6iSwF-71" value="&lt;i&gt;report&lt;/i&gt;" style="verticalLabelPosition=bottom;sketch=0;aspect=fixed;html=1;verticalAlign=top;strokeColor=none;align=center;outlineConnect=0;shape=mxgraph.citrix.reporting;" vertex="1" parent="GJjUbqn_mIdFy_l6iSwF-19">
          <mxGeometry x="644.89" y="410" width="80.22" height="90" as="geometry" />
        </mxCell>
        <mxCell id="GJjUbqn_mIdFy_l6iSwF-73" value="&lt;i&gt;bug&lt;/i&gt;" style="shape=image;html=1;verticalAlign=top;verticalLabelPosition=bottom;labelBackgroundColor=#ffffff;imageAspect=0;aspect=fixed;image=https://cdn1.iconfinder.com/data/icons/material-core/18/bug-report-128.png" vertex="1" parent="GJjUbqn_mIdFy_l6iSwF-19">
          <mxGeometry x="418.5" y="460" width="51.5" height="51.5" as="geometry" />
        </mxCell>
        <mxCell id="GJjUbqn_mIdFy_l6iSwF-78" value="&lt;i&gt;or&lt;/i&gt;" style="shape=xor;whiteSpace=wrap;html=1;" vertex="1" parent="GJjUbqn_mIdFy_l6iSwF-19">
          <mxGeometry x="65" y="455" width="50" height="50" as="geometry" />
        </mxCell>
        <mxCell id="GJjUbqn_mIdFy_l6iSwF-79" value="&lt;i&gt;and&lt;/i&gt;" style="shape=or;whiteSpace=wrap;html=1;" vertex="1" parent="GJjUbqn_mIdFy_l6iSwF-19">
          <mxGeometry x="190" y="451.5" width="50" height="60" as="geometry" />
        </mxCell>
        <mxCell id="GJjUbqn_mIdFy_l6iSwF-80" value="&lt;i&gt;download&lt;/i&gt;" style="sketch=0;outlineConnect=0;fontColor=#232F3E;gradientColor=none;strokeColor=#232F3E;fillColor=#ffffff;dashed=0;verticalLabelPosition=bottom;verticalAlign=top;align=center;html=1;fontSize=12;fontStyle=0;aspect=fixed;shape=mxgraph.aws4.resourceIcon;resIcon=mxgraph.aws4.download_distribution;" vertex="1" parent="GJjUbqn_mIdFy_l6iSwF-19">
          <mxGeometry x="305" y="450" width="60" height="60" as="geometry" />
        </mxCell>
        <mxCell id="GJjUbqn_mIdFy_l6iSwF-81" value="&lt;i&gt;login&lt;/i&gt;" style="sketch=0;pointerEvents=1;shadow=0;dashed=0;html=1;strokeColor=none;labelPosition=center;verticalLabelPosition=bottom;verticalAlign=top;align=center;fillColor=#505050;shape=mxgraph.mscae.intune.account_portal" vertex="1" parent="GJjUbqn_mIdFy_l6iSwF-19">
          <mxGeometry x="200" y="558.5" width="43" height="50" as="geometry" />
        </mxCell>
        <mxCell id="GJjUbqn_mIdFy_l6iSwF-82" value="&lt;i&gt;fix&lt;/i&gt;" style="sketch=0;pointerEvents=1;shadow=0;dashed=0;html=1;strokeColor=none;labelPosition=center;verticalLabelPosition=bottom;verticalAlign=top;align=center;fillColor=#505050;shape=mxgraph.mscae.intune.administration" vertex="1" parent="GJjUbqn_mIdFy_l6iSwF-19">
          <mxGeometry x="275" y="639.5" width="30" height="50" as="geometry" />
        </mxCell>
        <mxCell id="GJjUbqn_mIdFy_l6iSwF-84" value="&lt;i&gt;report&lt;/i&gt;" style="shape=image;html=1;verticalAlign=top;verticalLabelPosition=bottom;labelBackgroundColor=#ffffff;imageAspect=0;aspect=fixed;image=https://cdn0.iconfinder.com/data/icons/thin-line-icons-for-seo-and-development-1/64/Programming_Development_analysis-128.png" vertex="1" parent="GJjUbqn_mIdFy_l6iSwF-19">
          <mxGeometry x="380.25" y="559" width="128" height="128" as="geometry" />
        </mxCell>
        <mxCell id="GJjUbqn_mIdFy_l6iSwF-85" value="&lt;i&gt;halt/exit&lt;/i&gt;" style="shape=image;html=1;verticalAlign=top;verticalLabelPosition=bottom;labelBackgroundColor=#ffffff;imageAspect=0;aspect=fixed;image=https://cdn0.iconfinder.com/data/icons/google-material-design-3-0/48/ic_report_48px-128.png" vertex="1" parent="GJjUbqn_mIdFy_l6iSwF-19">
          <mxGeometry x="130" y="630" width="69" height="69" as="geometry" />
        </mxCell>
      </root>
    </mxGraphModel>
  </diagram>
</mxfile>
